<svg width="32" height="32" viewBox="0 0 32 32" fill="none" xmlns="http://www.w3.org/2000/svg">
<circle cx="15.6842" cy="15.6842" r="15.6842" fill="#2E2E2E"/>
<path d="M22.7422 10.8364C22.7422 9.66211 21.7061 8.62598 20.5318 8.62598H11.6211C10.4468 8.62598 9.41064 9.66211 9.41064 10.8364V19.7471C9.41064 20.9214 10.4468 21.9576 11.6211 21.9576H16.111V16.915H14.4532V14.7046H16.111V13.8066C16.111 12.287 17.2162 10.9745 18.5977 10.9745H20.3937V13.185H18.5977C18.3905 13.185 18.1832 13.3922 18.1832 13.8066V14.7046H20.3937V16.915H18.1832V21.9576H20.5318C21.7061 21.9576 22.7422 20.9214 22.7422 19.7471V10.8364Z" fill="white"/>
</svg>
