<svg width="32" height="32" viewBox="0 0 32 32" fill="none" xmlns="http://www.w3.org/2000/svg">
<circle cx="16.1054" cy="15.6842" r="15.6842" fill="#2E2E2E"/>
<path d="M21.2662 9.41016H11.729C10.6522 9.41016 9.83179 10.2306 9.83179 11.3073V20.8445C9.83179 21.9213 10.6522 22.7417 11.729 22.7417H21.2662C22.343 22.7417 23.1634 21.9213 23.1634 20.8445V11.3073C23.1634 10.2306 22.343 9.41016 21.2662 9.41016ZM16.4976 20.0754C18.7024 20.0754 20.4971 18.3321 20.4971 16.2298C20.4971 15.8708 20.4458 15.4606 20.3432 15.153H21.4713V20.5882C21.4713 20.8445 21.2662 21.1009 20.9585 21.1009H12.0366C11.7803 21.1009 11.5239 20.8958 11.5239 20.5882V15.1017H12.7032C12.6007 15.4606 12.5494 15.8196 12.5494 16.1785C12.4981 18.3321 14.2927 20.0754 16.4976 20.0754ZM16.4976 18.5372C15.0619 18.5372 13.9338 17.4091 13.9338 16.0247C13.9338 14.6402 15.0619 13.5122 16.4976 13.5122C17.9333 13.5122 19.0613 14.6402 19.0613 16.0247C19.0613 17.4604 17.9333 18.5372 16.4976 18.5372ZM21.42 13.0507C21.42 13.3584 21.1636 13.6147 20.856 13.6147H19.4203C19.1126 13.6147 18.8562 13.3584 18.8562 13.0507V11.6663C18.8562 11.3586 19.1126 11.1022 19.4203 11.1022H20.856C21.1636 11.1022 21.42 11.3586 21.42 11.6663V13.0507Z" fill="white"/>
</svg>
