<svg width="32" height="32" viewBox="0 0 32 32" fill="none" xmlns="http://www.w3.org/2000/svg">
<circle cx="15.8947" cy="15.6842" r="15.6842" fill="#2E2E2E"/>
<path d="M23.5848 19.6961C23.5848 19.631 23.5197 19.631 23.5197 19.5658C23.2593 19.045 22.6733 18.3939 21.892 17.6777C21.5014 17.3522 21.306 17.0918 21.1758 16.9616C20.9805 16.7011 20.9805 16.5058 21.0456 16.2454C21.1107 16.0501 21.3711 15.7245 21.8269 15.1385C22.0873 14.813 22.2175 14.6177 22.4129 14.4224C23.3895 13.1202 23.8452 12.2738 23.715 11.8832L23.6499 11.8181C23.5848 11.753 23.5197 11.6879 23.3895 11.6879C23.2593 11.6227 23.0639 11.6227 22.8686 11.6879H20.3945C20.3294 11.6879 20.3294 11.6879 20.1992 11.6879C20.1341 11.6879 20.069 11.6879 20.069 11.6879H20.0039H19.9388L19.8737 11.753C19.8086 11.8181 19.8086 11.8181 19.8086 11.8832C19.5481 12.5994 19.2226 13.1853 18.8971 13.8364C18.7017 14.1619 18.5064 14.4875 18.3111 14.7479C18.1158 15.0083 17.9856 15.2037 17.8553 15.3339C17.7251 15.4641 17.5949 15.5292 17.5298 15.6594C17.4647 15.7245 17.3345 15.7896 17.3345 15.7245C17.2694 15.7245 17.2043 15.7245 17.2043 15.6594C17.1392 15.5943 17.0741 15.5292 17.009 15.4641C16.9438 15.399 16.9438 15.2688 16.8787 15.1385C16.8787 15.0083 16.8787 14.8781 16.8787 14.813C16.8787 14.7479 16.8787 14.5526 16.8787 14.4224C16.8787 14.227 16.8787 14.0968 16.8787 14.0317C16.8787 13.8364 16.8787 13.576 16.8787 13.3155C16.8787 13.0551 16.8787 12.8598 16.8787 12.7296C16.8787 12.5994 16.8787 12.404 16.8787 12.2738C16.8787 12.0785 16.8787 11.9483 16.8787 11.8832C16.8787 11.8181 16.8136 11.6878 16.8136 11.6227C16.7485 11.5576 16.6834 11.4925 16.6183 11.4274C16.5532 11.3623 16.423 11.3623 16.3579 11.2972C16.0323 11.2321 15.6417 11.167 15.186 11.167C14.1442 11.167 13.428 11.2321 13.1676 11.3623C13.0374 11.4274 12.9072 11.4925 12.8421 11.6227C12.7119 11.753 12.7119 11.8181 12.777 11.8181C13.1025 11.8832 13.3629 12.0134 13.4932 12.2087L13.5583 12.3389C13.6234 12.404 13.6234 12.5342 13.6885 12.7296C13.7536 12.9249 13.7536 13.1202 13.7536 13.3806C13.7536 13.7713 13.7536 14.1619 13.7536 14.4224C13.7536 14.7479 13.6885 14.9432 13.6885 15.1385C13.6885 15.3339 13.6234 15.4641 13.5583 15.5292C13.4932 15.6594 13.4931 15.7245 13.428 15.7245C13.428 15.7245 13.428 15.7896 13.3629 15.7896C13.2978 15.7896 13.2327 15.8547 13.1025 15.8547C13.0374 15.8547 12.9072 15.7896 12.8421 15.7245C12.7119 15.6594 12.5816 15.5292 12.5165 15.399C12.3863 15.2688 12.2561 15.0734 12.1259 14.813C11.9957 14.5526 11.8003 14.2921 11.6701 13.9015L11.5399 13.6411C11.4748 13.5109 11.3446 13.2504 11.2144 12.9249C11.0842 12.5994 10.954 12.3389 10.8237 12.0134C10.7586 11.8832 10.6935 11.8181 10.6284 11.753H10.5633C10.5633 11.753 10.4982 11.6879 10.4331 11.6879C10.368 11.6879 10.3029 11.6227 10.2378 11.6227H7.89391C7.63348 11.6227 7.50327 11.6878 7.43816 11.753L7.37305 11.8181C7.37305 11.8181 7.37305 11.8832 7.37305 11.9483C7.37305 12.0134 7.37305 12.0785 7.43816 12.2087C7.7637 12.99 8.15434 13.7713 8.54498 14.5526C8.93563 15.2688 9.32628 15.9198 9.58671 16.3756C9.91224 16.8313 10.1727 17.2871 10.4982 17.6777C10.8237 18.0684 11.0191 18.3288 11.0842 18.459C11.2144 18.5892 11.2795 18.6543 11.3446 18.7195L11.5399 18.9148C11.6701 19.045 11.8655 19.2403 12.1259 19.4356C12.3863 19.631 12.7119 19.8263 13.0374 20.0216C13.3629 20.2169 13.7536 20.3471 14.1442 20.4774C14.6 20.6076 14.9906 20.6727 15.3813 20.6076H16.3579C16.5532 20.6076 16.6834 20.5425 16.8136 20.4122L16.8787 20.3471C16.8787 20.282 16.9438 20.282 16.9438 20.2169C16.9438 20.1518 16.9438 20.0867 16.9438 19.9565C16.9438 19.6961 16.9438 19.5007 17.009 19.3054C17.0741 19.1101 17.0741 18.9799 17.1392 18.8497C17.2043 18.7195 17.2694 18.6543 17.3345 18.5892C17.3996 18.5241 17.4647 18.459 17.4647 18.459H17.5298C17.66 18.3939 17.8553 18.459 17.9856 18.5892C18.1809 18.7195 18.3762 18.9148 18.5064 19.1101C18.6366 19.3054 18.832 19.5007 19.0924 19.7612C19.3528 20.0216 19.5481 20.2169 19.6784 20.282L19.8737 20.4122C20.0039 20.4774 20.1341 20.5425 20.3294 20.6076C20.5248 20.6727 20.655 20.6727 20.7852 20.6727L22.9988 20.6076C23.1942 20.6076 23.3895 20.5425 23.5197 20.4774C23.6499 20.4123 23.715 20.3471 23.715 20.2169C23.715 20.1518 23.715 20.0216 23.715 19.9565C23.5848 19.8263 23.5848 19.7612 23.5848 19.6961Z" fill="white"/>
</svg>
