<svg width="32" height="32" viewBox="0 0 32 32" fill="none" xmlns="http://www.w3.org/2000/svg">
<circle cx="16.316" cy="15.6842" r="15.6842" fill="#2E2E2E"/>
<path d="M23.1491 14.8314C23.1491 14.5273 23.0984 14.1724 23.0984 13.7668C23.0477 13.3612 22.997 12.9557 22.9463 12.6008C22.8449 12.1952 22.6929 11.8911 22.3887 11.6376C22.1352 11.3841 21.7803 11.232 21.4254 11.1813C20.2594 11.0292 18.5358 10.9785 16.2037 10.9785C13.8717 10.9785 12.0973 11.0292 10.982 11.1813C10.6271 11.232 10.2722 11.3841 10.0187 11.6376C9.76527 11.8911 9.56248 12.1952 9.46108 12.6008C9.35969 12.9557 9.309 13.3106 9.309 13.7668C9.2583 14.1724 9.2583 14.5273 9.2583 14.8314C9.2583 15.1356 9.2583 15.4905 9.2583 15.9975C9.2583 16.5044 9.2583 16.91 9.2583 17.1635C9.2583 17.4677 9.309 17.8225 9.309 18.2281C9.3597 18.6337 9.41039 19.0392 9.46108 19.3941C9.56248 19.7997 9.71457 20.1039 10.0187 20.3574C10.2722 20.6108 10.6271 20.7629 10.982 20.8136C12.148 20.9657 13.8717 21.0164 16.2037 21.0164C18.5358 21.0164 20.3101 20.9657 21.4254 20.8136C21.7803 20.7629 22.1352 20.6108 22.3887 20.3574C22.6422 20.1039 22.8449 19.7997 22.9463 19.3941C23.0477 19.0392 23.0984 18.6844 23.0984 18.2281C23.1491 17.8225 23.1491 17.4677 23.1491 17.1635C23.1491 16.8593 23.1491 16.5044 23.1491 15.9975C23.1491 15.4905 23.1491 15.0849 23.1491 14.8314ZM18.8906 16.403L14.8856 18.8872C14.8349 18.9379 14.7335 18.9886 14.6321 18.9886C14.5307 18.9886 14.48 18.9886 14.3786 18.9379C14.2266 18.8365 14.1252 18.6844 14.1252 18.4816V13.4626C14.1252 13.2599 14.2266 13.1078 14.3786 13.0064C14.5307 12.905 14.7335 12.905 14.8856 13.0064L18.8906 15.4905C19.0427 15.5919 19.1441 15.744 19.1441 15.8961C19.1441 16.0482 19.0427 16.3016 18.8906 16.403Z" fill="white"/>
</svg>
